<?xml version="1.0" encoding="UTF-8" standalone="no"?>
<!DOCTYPE svg PUBLIC "-//W3C//DTD SVG 1.1//EN" "http://www.w3.org/Graphics/SVG/1.1/DTD/svg11.dtd">
<svg width="100px" height="100px" viewBox="0 0 89 79" version="1.1" xmlns="http://www.w3.org/2000/svg" xmlnsXlink="http://www.w3.org/1999/xlink" xmlSpace="preserve" xmlnsSerif="http://www.serif.com/" style="fill-rule:evenodd;clip-rule:evenodd;stroke-linejoin:round;stroke-miterlimit:2;">
    <g transform="matrix(1,0,0,1,0.000298111,-0.308164)">
        <path d="M56.539,75.72L32.929,75.34L32.929,38.71L44.449,23.28L56.539,38.71L56.539,75.72Z" style="fill:url(#_Linear1);fill-rule:nonzero;"/>
        <path d="M55.669,39.19L36.549,37L43.869,18.82L44.089,18.69L75.919,0.31L87.389,20.87L55.669,39.19Z" style="fill:url(#_Linear2);fill-rule:nonzero;"/>
        <path d="M32.959,39.75L0.909,21.24L13.049,1.34L44.869,19.89L52.369,36.98L32.959,39.75Z" style="fill:url(#_Linear3);fill-rule:nonzero;"/>
        <path d="M44.449,79C40.079,79 36.739,78.31 34.699,77.73C33.319,77.34 32.359,76.05 32.359,74.61L32.349,38.98C32.289,33.77 30.149,29.34 26.169,26.16C20.699,21.81 12.179,20.22 3.949,22.02C2.769,22.28 1.589,21.89 0.798,20.98C0.009,20.07 -0.211,18.85 0.209,17.72C1.149,15.2 2.349,12.21 4.119,9.15C6.309,5.36 8.579,2.82 10.099,1.35C11.129,0.35 12.729,0.16 13.979,0.88L44.049,18.24L44.059,18.22L44.859,18.7L44.859,18.71C49.459,21.26 54.329,21.61 59.049,19.75C65.549,17.19 71.179,10.61 73.749,2.58C74.119,1.43 75.039,0.6 76.229,0.37C77.409,0.14 78.579,0.56 79.349,1.49C81.059,3.56 83.049,6.1 84.819,9.16C87.009,12.95 88.079,16.19 88.589,18.24C88.939,19.63 88.309,21.11 87.059,21.83L56.809,39.3L55.989,39.78C51.599,42.45 48.899,46.52 48.179,51.53C47.189,58.41 50.079,66.53 55.719,72.73C56.529,73.63 56.779,74.84 56.389,75.98C55.999,77.12 55.049,77.92 53.859,78.12C51.169,78.54 47.979,79 44.449,79Z" style="fill:rgb(68,0,78);fill-rule:nonzero;"/>
    </g>
    <defs>
        <linearGradient id="_Linear1" x1="0" y1="0" x2="1" y2="0" gradientUnits="userSpaceOnUse" gradientTransform="matrix(-27.538,-42.405,-42.405,27.538,56.776,75.568)"><stop offset="0" style="stop-color:rgb(68,0,78);stop-opacity:1"/><stop offset="0.1" style="stop-color:rgb(76,0,86);stop-opacity:1"/><stop offset="0.3" style="stop-color:rgb(131,0,138);stop-opacity:1"/><stop offset="0.5" style="stop-color:rgb(234,0,235);stop-opacity:1"/><stop offset="0.6" style="stop-color:rgb(255,0,255);stop-opacity:1"/><stop offset="1" style="stop-color:rgb(255,0,255);stop-opacity:1"/></linearGradient>
        <linearGradient id="_Linear2" x1="0" y1="0" x2="1" y2="0" gradientUnits="userSpaceOnUse" gradientTransform="matrix(-22.02,45.149,45.149,22.02,75.3,0.0100021)"><stop offset="0" style="stop-color:rgb(68,0,78);stop-opacity:1"/><stop offset="0.1" style="stop-color:rgb(76,0,86);stop-opacity:1"/><stop offset="0.3" style="stop-color:rgb(131,0,138);stop-opacity:1"/><stop offset="0.5" style="stop-color:rgb(234,0,235);stop-opacity:1"/><stop offset="0.6" style="stop-color:rgb(255,0,255);stop-opacity:1"/><stop offset="1" style="stop-color:rgb(255,0,255);stop-opacity:1"/></linearGradient>
        <linearGradient id="_Linear3" x1="0" y1="0" x2="1" y2="0" gradientUnits="userSpaceOnUse" gradientTransform="matrix(50.306,-3.077,-3.077,-50.306,0.948,21.896)"><stop offset="0" style="stop-color:rgb(68,0,78);stop-opacity:1"/><stop offset="0.1" style="stop-color:rgb(76,0,86);stop-opacity:1"/><stop offset="0.3" style="stop-color:rgb(131,0,138);stop-opacity:1"/><stop offset="0.5" style="stop-color:rgb(234,0,235);stop-opacity:1"/><stop offset="0.6" style="stop-color:rgb(255,0,255);stop-opacity:1"/><stop offset="1" style="stop-color:rgb(255,0,255);stop-opacity:1"/></linearGradient>
    </defs>
</svg>
